# xmcd
# 
# Track frame offsets:
#     150
#     18737
#     38100
# 
# Disc length: 688
# 
# Revision: 2
# Processed by: cddbd v1.5.2PL0 Copyright (c) Steve Scherf et al.
# Submitted via: fre:ac v1.0.31
# 
DISCID=1e02ae03
DTITLE=Deep Blue Something - Josey (Single)
DYEAR=1996
DGENRE=Rovk
TTITLE0=Josey
TTITLE1=Breakfast At Tiffany's
TTITLE2=Dear Prudence
EXTD=
EXTT0=
EXTT1=
EXTT2=
PLAYORDER=
